<?xml version="1.0" encoding="utf-8"?>
<!-- Generator: Adobe Illustrator 28.2.0, SVG Export Plug-In . SVG Version: 6.00 Build 0)  -->
<svg version="1.1" id="Layer_1" xmlns="http://www.w3.org/2000/svg" xmlns:xlink="http://www.w3.org/1999/xlink" x="0px" y="0px"
	 viewBox="0 0 576 432" style="enable-background:new 0 0 576 432;" xml:space="preserve">
<style type="text/css">
	.st0{fill:none;}
	.st1{clip-path:url(#SVGID_00000156547493172037456650000015536834487919266463_);}
	.st2{fill:none;stroke:#EBEBEB;stroke-width:1.07;stroke-linejoin:round;stroke-miterlimit:10;}
	.st3{fill:none;stroke:#FFB6C1;stroke-width:2.13;stroke-linejoin:round;stroke-miterlimit:10;}
	.st4{fill:none;stroke:#913055;stroke-width:1.49;stroke-linejoin:round;stroke-miterlimit:10;}
	.st5{fill:none;stroke:#A32372;stroke-width:1.49;stroke-linejoin:round;stroke-miterlimit:10;}
	.st6{clip-path:url(#SVGID_00000090999967633977667110000017702422990125725618_);}
	.st7{fill:#4D4D4D;}
	.st8{font-family:'ArialMT';}
	.st9{font-size:8.8px;}
	.st10{enable-background:new    ;}
	.st11{font-size:14px;}
	.st12{font-family:'Arial-BoldMT';}
	.st13{font-size:18px;}
</style>
<rect class="st0" width="576" height="432"/>
<g>
	<defs>
		<rect id="SVGID_1_" width="576" height="432"/>
	</defs>
	<clipPath id="SVGID_00000065788121402532062900000007867170917153049985_">
		<use xlink:href="#SVGID_1_"  style="overflow:visible;"/>
	</clipPath>
</g>
<g>
	<defs>
		<rect id="SVGID_00000022559672478122589690000000671712172189063603_" x="38.2" y="46.5" width="532.4" height="340.1"/>
	</defs>
	<clipPath id="SVGID_00000181061979089620470060000008195422470265236669_">
		<use xlink:href="#SVGID_00000022559672478122589690000000671712172189063603_"  style="overflow:visible;"/>
	</clipPath>
	<g style="clip-path:url(#SVGID_00000181061979089620470060000008195422470265236669_);">
		<line class="st2" x1="38.2" y1="371.1" x2="570.5" y2="371.1"/>
		<line class="st2" x1="38.2" y1="293.8" x2="570.5" y2="293.8"/>
		<line class="st2" x1="38.2" y1="216.5" x2="570.5" y2="216.5"/>
		<line class="st2" x1="38.2" y1="139.2" x2="570.5" y2="139.2"/>
		<line class="st2" x1="38.2" y1="61.9" x2="570.5" y2="61.9"/>
		<polyline class="st3" points="62.4,162.4 67.2,146.9 72,108.3 76.9,247.4 81.7,131.5 86.6,301.5 91.4,146.9 96.2,216.5 
			101.1,208.8 105.9,131.5 110.8,92.8 115.6,146.9 120.4,100.6 125.3,208.8 130.1,154.7 135,108.3 139.8,262.9 144.6,224.2 
			149.5,108.3 154.3,123.8 159.1,177.9 164,185.6 168.8,139.2 173.7,301.5 178.5,278.3 183.4,123.8 188.2,232 193,232 197.9,146.9 
			202.7,170.1 207.6,139.2 212.4,247.4 217.2,170.1 222.1,201 226.9,162.4 231.8,154.7 236.6,77.4 241.4,170.1 246.3,100.6 
			251.1,201 255.9,162.4 260.8,193.3 265.6,123.8 270.5,100.6 275.3,177.9 280.1,170.1 285,216.5 289.8,146.9 294.7,92.8 
			299.5,154.7 304.3,123.8 309.2,131.5 314,193.3 318.9,193.3 323.7,270.6 328.5,255.1 333.4,123.8 338.2,201 343.1,162.4 
			347.9,193.3 352.7,162.4 357.6,162.4 362.4,185.6 367.3,162.4 372.1,201 376.9,239.7 381.8,208.8 386.6,232 391.5,340.2 
			396.3,232 401.1,154.7 406,131.5 410.8,177.9 415.6,201 420.5,177.9 425.3,255.1 430.2,247.4 435,177.9 439.9,317 444.7,170.1 
			449.5,201 454.4,201 459.2,208.8 464,146.9 468.9,224.2 473.7,208.8 478.6,247.4 483.4,208.8 488.2,216.5 493.1,232 497.9,293.8 
			502.8,146.9 507.6,139.2 512.5,139.2 517.3,255.1 522.1,262.9 527,177.9 531.8,208.8 536.6,293.8 541.5,239.7 546.3,293.8 		"/>
		<polyline class="st4" points="159.1,167.4 164,169.4 168.8,170.9 173.7,173.6 178.5,180.9 183.4,172.1 188.2,176.3 193,177.1 
			197.9,174 202.7,175.9 207.6,178.2 212.4,183.3 217.2,186.7 222.1,186.4 226.9,186.7 231.8,189.1 236.6,179.8 241.4,177.1 
			246.3,176.7 251.1,180.6 255.9,179.8 260.8,180.2 265.6,179.4 270.5,169.4 275.3,164.3 280.1,166.6 285,165.9 289.8,161.6 
			294.7,158.9 299.5,158.1 304.3,157.4 309.2,151.6 314,152.7 318.9,152.4 323.7,157.8 328.5,162.8 333.4,165.1 338.2,166.6 
			343.1,169.7 347.9,169.4 352.7,169.4 357.6,167.8 362.4,170.9 367.3,174 372.1,175.1 376.9,178.6 381.8,178.2 386.6,182.5 
			391.5,194.9 396.3,198.7 401.1,200.3 406,200.3 410.8,199.5 415.6,199.9 420.5,195.2 425.3,195.2 430.2,201.4 435,200.3 
			439.9,208 444.7,206.8 449.5,208.8 454.4,210.7 459.2,211.9 464,211.1 468.9,212.2 473.7,210.7 478.6,212.6 483.4,211.5 
			488.2,205.3 493.1,205.3 497.9,212.2 502.8,213 507.6,211.1 512.5,208 517.3,211.9 522.1,212.2 527,208.8 531.8,210.3 
			536.6,209.2 541.5,212.6 546.3,217.3 		"/>
		<polyline class="st5" points="105.9,180.2 110.8,173.2 115.6,173.2 120.4,172.4 125.3,168.6 130.1,170.9 135,151.6 139.8,163.2 
			144.6,163.9 149.5,153.9 154.3,153.1 159.1,161.6 164,165.5 168.8,169.4 173.7,178.6 178.5,191 183.4,192.5 188.2,189.4 
			193,190.2 197.9,194.1 202.7,198.7 207.6,194.9 212.4,201 217.2,204.1 222.1,194.1 226.9,182.5 231.8,185.6 236.6,170.1 
			241.4,163.9 246.3,159.3 251.1,162.4 255.9,164.7 260.8,159.3 265.6,154.7 270.5,144.6 275.3,146.2 280.1,147.7 285,161.6 
			289.8,159.3 294.7,158.5 299.5,153.9 304.3,150 309.2,143.9 314,150.8 318.9,160.1 323.7,169.4 328.5,177.9 333.4,168.6 
			338.2,174 343.1,180.9 347.9,184.8 352.7,188.7 357.6,191.8 362.4,191 367.3,187.9 372.1,180.9 376.9,179.4 381.8,187.9 
			386.6,191 391.5,208.8 396.3,212.6 401.1,211.9 406,208.8 410.8,208 415.6,211.9 420.5,209.5 425.3,211.1 430.2,214.9 435,209.5 
			439.9,207.2 444.7,201 449.5,205.7 454.4,212.6 459.2,215.7 464,210.3 468.9,214.9 473.7,210.3 478.6,210.3 483.4,213.4 
			488.2,203.4 493.1,209.5 497.9,218.8 502.8,213.4 507.6,206.4 512.5,205.7 517.3,208.8 522.1,214.2 527,207.2 531.8,207.2 
			536.6,214.9 541.5,215.7 546.3,215.7 		"/>
	</g>
</g>
<g>
	<defs>
		<rect id="SVGID_00000175311179917752415460000010845751579489621900_" width="576" height="432"/>
	</defs>
	<clipPath id="SVGID_00000065057670265132411350000009770306911586649997_">
		<use xlink:href="#SVGID_00000175311179917752415460000010845751579489621900_"  style="overflow:visible;"/>
	</clipPath>
	<g style="clip-path:url(#SVGID_00000065057670265132411350000009770306911586649997_);">
		<rect x="23.4" y="366.7" class="st0" width="9.8" height="10.4"/>
		<text transform="matrix(1 0 0 1 23.4419 374.2197)" class="st7 st8 st9">70</text>
		<rect x="23.4" y="289.4" class="st0" width="9.8" height="10.4"/>
		<text transform="matrix(1 0 0 1 23.4419 296.9404)" class="st7 st8 st9">80</text>
		<rect x="23.4" y="212.1" class="st0" width="9.8" height="10.4"/>
		<text transform="matrix(1 0 0 1 23.4419 219.6504)" class="st7 st8 st9">90</text>
		<rect x="18.5" y="134.8" class="st0" width="14.7" height="10.4"/>
		<text transform="matrix(1 0 0 1 18.5474 142.3701)" class="st7 st8 st9">100</text>
		<rect x="19.2" y="57.5" class="st0" width="14.7" height="10.4"/>
		<text transform="matrix(1 0 0 1 19.2007 65.0801)" class="st7 st8 st9">110</text>
		<rect x="42.9" y="390.2" class="st0" width="19.6" height="10.4"/>
		<text transform="matrix(1 0 0 1 42.8916 397.7695)" class="st7 st8 st9">1920</text>
		<rect x="139.7" y="390.2" class="st0" width="19.6" height="10.4"/>
		<text transform="matrix(1 0 0 1 139.6816 397.7695)" class="st7 st8 st9">1940</text>
		<rect x="236.5" y="390.2" class="st0" width="19.6" height="10.4"/>
		<text transform="matrix(1 0 0 1 236.4819 397.7695)" class="st7 st8 st9">1960</text>
		<rect x="333.3" y="390.2" class="st0" width="19.6" height="10.4"/>
		<text transform="matrix(1 0 0 1 333.2715 397.7695)" class="st7 st8 st9">1980</text>
		<rect x="430.1" y="390.2" class="st0" width="19.6" height="10.4"/>
		<text transform="matrix(1 0 0 1 430.0615 397.7695)" class="st7 st8 st9">2000</text>
		<rect x="526.9" y="390.2" class="st0" width="19.6" height="10.4"/>
		<text transform="matrix(1 0 0 1 526.8516 397.7695)" class="st7 st8 st9">2020</text>
		<rect x="38.2" y="25.9" class="st0" width="445.8" height="16.6"/>
		<text transform="matrix(1 0 0 1 38.1602 37.8906)" class="st10"><tspan x="0" y="0" class="st8 st11">Yoshino</tspan><tspan x="50.6" y="0" class="st8 st11"> </tspan><tspan x="53.8" y="0" class="st8 st11">peak</tspan><tspan x="84.2" y="0" class="st8 st11"> </tspan><tspan x="87.4" y="0" class="st8 st11">bloom</tspan><tspan x="125.6" y="0" class="st8 st11"> </tspan><tspan x="128.8" y="0" class="st8 st11">dates</tspan><tspan x="163" y="0" class="st8 st11">  </tspan><tspan x="169.5" y="0" class="st8 st11">in</tspan><tspan x="180.4" y="0" class="st8 st11"> </tspan><tspan x="183.7" y="0" class="st8 st11">Washington</tspan><tspan x="257.6" y="0" class="st8 st11"> </tspan><tspan x="260.8" y="0" class="st8 st11">DC</tspan><tspan x="281" y="0" class="st8 st11"> </tspan><tspan x="284.3" y="0" class="st8 st11">as</tspan><tspan x="299.1" y="0" class="st8 st11"> </tspan><tspan x="302.3" y="0" class="st8 st11">count</tspan><tspan x="336.5" y="0" class="st8 st11"> </tspan><tspan x="339.8" y="0" class="st8 st11">from</tspan><tspan x="367.8" y="0" class="st8 st11"> </tspan><tspan x="371" y="0" class="st8 st11">New</tspan><tspan x="399" y="0" class="st8 st11"> </tspan><tspan x="402.3" y="0" class="st8 st11">Year’s. </tspan></text>
		<rect x="38.2" y="2.9" class="st0" width="529.3" height="21.3"/>
		<text transform="matrix(1 0 0 1 38.1602 18.3853)" class="st10"><tspan x="0" y="0" class="st12 st13">Yoshino</tspan><tspan x="71" y="0" class="st12 st13"> </tspan><tspan x="75.4" y="0" class="st12 st13">peak</tspan><tspan x="116.4" y="0" class="st12 st13"> </tspan><tspan x="120.8" y="0" class="st12 st13">bloom</tspan><tspan x="174.8" y="0" class="st12 st13"> </tspan><tspan x="179.1" y="0" class="st12 st13">days</tspan><tspan x="220.2" y="0" class="st12 st13"> </tspan><tspan x="224.5" y="0" class="st12 st13">are</tspan><tspan x="251.6" y="0" class="st12 st13"> </tspan><tspan x="255.9" y="0" class="st12 st13">5</tspan><tspan x="265.9" y="0" class="st12 st13"> </tspan><tspan x="270.3" y="0" class="st12 st13">days</tspan><tspan x="311.3" y="0" class="st12 st13"> </tspan><tspan x="315.7" y="0" class="st12 st13">earlier</tspan><tspan x="369.8" y="0" class="st12 st13"> </tspan><tspan x="374.1" y="0" class="st12 st13">than</tspan><tspan x="412.1" y="0" class="st12 st13"> </tspan><tspan x="416.5" y="0" class="st12 st13">a</tspan><tspan x="426.5" y="0" class="st12 st13"> </tspan><tspan x="430.9" y="0" class="st12 st13">decade</tspan><tspan x="492.9" y="0" class="st12 st13"> </tspan><tspan x="497.3" y="0" class="st12 st13">ago </tspan></text>
		<text transform="matrix(1 0 0 1 453.1337 424.57)" class="st8 st9">Source: National Park Service</text>
	</g>
</g>
</svg>
