<?xml version="1.0" encoding="utf-8"?>
<!-- Generator: Adobe Illustrator 28.2.0, SVG Export Plug-In . SVG Version: 6.00 Build 0)  -->
<svg version="1.1" id="Layer_1" xmlns="http://www.w3.org/2000/svg" xmlns:xlink="http://www.w3.org/1999/xlink" x="0px" y="0px"
	 viewBox="0 0 324 432" style="enable-background:new 0 0 324 432;" xml:space="preserve">
<style type="text/css">
	.st0{fill:none;}
	.st1{clip-path:url(#SVGID_00000126323915571210401720000000810843092106784682_);}
	.st2{fill:none;stroke:#EBEBEB;stroke-width:0.53;stroke-linejoin:round;stroke-miterlimit:10;}
	.st3{fill:none;stroke:#EBEBEB;stroke-width:1.07;stroke-linejoin:round;stroke-miterlimit:10;}
	.st4{fill:none;stroke:#FFB6C1;stroke-width:2.13;stroke-linejoin:round;stroke-miterlimit:10;}
	.st5{fill:none;stroke:#913055;stroke-width:1.49;stroke-linejoin:round;stroke-miterlimit:10;}
	.st6{fill:none;stroke:#A32372;stroke-width:1.49;stroke-linejoin:round;stroke-miterlimit:10;}
	.st7{clip-path:url(#SVGID_00000067938242260809602680000016000033205627228811_);}
	.st8{clip-path:url(#SVGID_00000095313833764130354060000008464416345195207298_);}
	.st9{clip-path:url(#SVGID_00000160165925775393283110000014207282380183444384_);}
	.st10{clip-path:url(#SVGID_00000082348715094113716740000006350247773926664872_);}
	.st11{fill:#4D4D4D;}
	.st12{font-family:'ArialMT';}
	.st13{font-size:8.8px;}
	.st14{fill:none;stroke:#A32372;stroke-width:2.13;stroke-linejoin:round;stroke-miterlimit:10;}
	.st15{fill:none;stroke:#913055;stroke-width:2.13;stroke-linejoin:round;stroke-miterlimit:10;}
	.st16{fill:none;stroke:#FFB6C1;stroke-width:1.49;stroke-linejoin:round;stroke-miterlimit:10;}
	.st17{font-size:12px;}
</style>
<rect x="-237.4" y="-430" class="st0" width="576" height="360"/>
<g>
	<defs>
		<rect id="SVGID_1_" x="-237.4" y="-430" width="576" height="360"/>
	</defs>
	<clipPath id="SVGID_00000026154465479735225490000016145812851096621224_">
		<use xlink:href="#SVGID_1_"  style="overflow:visible;"/>
	</clipPath>
</g>
<g>
	<defs>
		<rect id="SVGID_00000129924127049206486720000010188325602392326818_" x="-199.3" y="-383.5" width="532.4" height="265.1"/>
	</defs>
	<clipPath id="SVGID_00000163053735527600016090000016721175325960845979_">
		<use xlink:href="#SVGID_00000129924127049206486720000010188325602392326818_"  style="overflow:visible;"/>
	</clipPath>
	<g style="clip-path:url(#SVGID_00000163053735527600016090000016721175325960845979_);">
		<line class="st2" x1="-199.3" y1="-160.6" x2="333.1" y2="-160.6"/>
		<line class="st2" x1="-199.3" y1="-220.9" x2="333.1" y2="-220.9"/>
		<line class="st2" x1="-199.3" y1="-281.1" x2="333.1" y2="-281.1"/>
		<line class="st2" x1="-199.3" y1="-341.4" x2="333.1" y2="-341.4"/>
		<line class="st3" x1="-199.3" y1="-130.5" x2="333.1" y2="-130.5"/>
		<line class="st3" x1="-199.3" y1="-190.8" x2="333.1" y2="-190.8"/>
		<line class="st3" x1="-199.3" y1="-251" x2="333.1" y2="-251"/>
		<line class="st3" x1="-199.3" y1="-311.2" x2="333.1" y2="-311.2"/>
		<line class="st3" x1="-199.3" y1="-371.5" x2="333.1" y2="-371.5"/>
		<polyline class="st4" points="-175.1,-293.2 -170.2,-305.2 -165.4,-335.3 -160.6,-226.9 -155.7,-317.3 -150.9,-184.7 -146,-305.2 
			-141.2,-251 -136.4,-257 -131.5,-317.3 -126.7,-347.4 -121.8,-305.2 -117,-341.4 -112.2,-257 -107.3,-299.2 -102.5,-335.3 
			-97.6,-214.9 -92.8,-245 -88,-335.3 -83.1,-323.3 -78.3,-281.1 -73.4,-275.1 -68.6,-311.2 -63.8,-184.7 -58.9,-202.8 
			-54.1,-323.3 -49.2,-238.9 -44.4,-238.9 -39.6,-305.2 -34.7,-287.1 -29.9,-311.2 -25,-226.9 -20.2,-287.1 -15.4,-263 
			-10.5,-293.2 -5.7,-299.2 -0.8,-359.4 4,-287.1 8.8,-341.4 13.7,-263 18.5,-293.2 23.4,-269.1 28.2,-323.3 33,-341.4 37.9,-281.1 
			42.7,-287.1 47.5,-251 52.4,-305.2 57.2,-347.4 62.1,-299.2 66.9,-323.3 71.7,-317.3 76.6,-269.1 81.4,-269.1 86.3,-208.8 
			91.1,-220.9 95.9,-323.3 100.8,-263 105.6,-293.2 110.5,-269.1 115.3,-293.2 120.1,-293.2 125,-275.1 129.8,-293.2 134.7,-263 
			139.5,-232.9 144.3,-257 149.2,-238.9 154,-154.6 158.9,-238.9 163.7,-299.2 168.5,-317.3 173.4,-281.1 178.2,-263 183.1,-281.1 
			187.9,-220.9 192.7,-226.9 197.6,-281.1 202.4,-172.7 207.3,-287.1 212.1,-263 216.9,-263 221.8,-257 226.6,-305.2 231.5,-245 
			236.3,-257 241.1,-226.9 246,-257 250.8,-251 255.7,-238.9 260.5,-190.8 265.3,-305.2 270.2,-311.2 275,-311.2 279.8,-220.9 
			284.7,-214.9 289.5,-281.1 294.4,-257 299.2,-190.8 304,-232.9 308.9,-190.8 		"/>
		<polyline class="st5" points="-78.3,-289.2 -73.4,-287.8 -68.6,-286.5 -63.8,-284.4 -58.9,-278.7 -54.1,-285.6 -49.2,-282.3 
			-44.4,-281.7 -39.6,-284.1 -34.7,-282.6 -29.9,-280.8 -25,-276.9 -20.2,-274.2 -15.4,-274.5 -10.5,-274.2 -5.7,-272.4 
			-0.8,-279.6 4,-281.7 8.8,-282 13.7,-279 18.5,-279.6 23.4,-279.3 28.2,-279.9 33,-287.8 37.9,-291.7 42.7,-289.9 47.5,-290.5 
			52.4,-293.8 57.2,-295.9 62.1,-296.5 66.9,-297.1 71.7,-301.6 76.6,-300.7 81.4,-301 86.3,-296.8 91.1,-292.9 95.9,-291.1 
			100.8,-289.9 105.6,-287.5 110.5,-287.8 115.3,-287.8 120.1,-289 125,-286.5 129.8,-284.1 134.7,-283.2 139.5,-280.5 
			144.3,-280.8 149.2,-277.5 154,-267.9 158.9,-264.9 163.7,-263.6 168.5,-263.6 173.4,-264.3 178.2,-264 183.1,-267.6 
			187.9,-267.6 192.7,-262.8 197.6,-263.6 202.4,-257.6 207.3,-258.5 212.1,-257 216.9,-255.5 221.8,-254.6 226.6,-255.2 
			231.5,-254.3 236.3,-255.5 241.1,-254 246,-254.9 250.8,-259.7 255.7,-259.7 260.5,-254.3 265.3,-253.7 270.2,-255.2 275,-257.6 
			279.8,-254.6 284.7,-254.3 289.5,-257 294.4,-255.8 299.2,-256.7 304,-254 308.9,-250.4 		"/>
		<polyline class="st6" points="-131.5,-279.3 -126.7,-284.7 -121.8,-284.7 -117,-285.3 -112.2,-288.4 -107.3,-286.5 -102.5,-301.6 
			-97.6,-292.6 -92.8,-292 -88,-299.8 -83.1,-300.4 -78.3,-293.8 -73.4,-290.8 -68.6,-287.8 -63.8,-280.5 -58.9,-270.9 
			-54.1,-269.7 -49.2,-272.1 -44.4,-271.5 -39.6,-268.5 -34.7,-264.9 -29.9,-267.9 -25,-263 -20.2,-260.6 -15.4,-268.5 
			-10.5,-277.5 -5.7,-275.1 -0.8,-287.1 4,-292 8.8,-295.6 13.7,-293.2 18.5,-291.4 23.4,-295.6 28.2,-299.2 33,-307 37.9,-305.8 
			42.7,-304.6 47.5,-293.8 52.4,-295.6 57.2,-296.2 62.1,-299.8 66.9,-302.8 71.7,-307.6 76.6,-302.2 81.4,-295 86.3,-287.8 
			91.1,-281.1 95.9,-288.4 100.8,-284.1 105.6,-278.7 110.5,-275.7 115.3,-272.7 120.1,-270.3 125,-270.9 129.8,-273.3 
			134.7,-278.7 139.5,-279.9 144.3,-273.3 149.2,-270.9 154,-257 158.9,-254 163.7,-254.6 168.5,-257 173.4,-257.6 178.2,-254.6 
			183.1,-256.4 187.9,-255.2 192.7,-252.2 197.6,-256.4 202.4,-258.2 207.3,-263 212.1,-259.4 216.9,-254 221.8,-251.6 
			226.6,-255.8 231.5,-252.2 236.3,-255.8 241.1,-255.8 246,-253.4 250.8,-261.2 255.7,-256.4 260.5,-249.2 265.3,-253.4 
			270.2,-258.8 275,-259.4 279.8,-257 284.7,-252.8 289.5,-258.2 294.4,-258.2 299.2,-252.2 304,-251.6 308.9,-251.6 		"/>
	</g>
</g>
<g>
	<defs>
		<rect id="SVGID_00000178907318993401219410000008812508561865245606_" x="-237.4" y="-430" width="576" height="360"/>
	</defs>
	<clipPath id="SVGID_00000070099456821258024880000003921185558083684279_">
		<use xlink:href="#SVGID_00000178907318993401219410000008812508561865245606_"  style="overflow:visible;"/>
	</clipPath>
	<g style="clip-path:url(#SVGID_00000070099456821258024880000003921185558083684279_);">
		<rect x="-214" y="-134.9" class="st0" width="9.8" height="10.4"/>
		<text transform="matrix(1 0 0 1 -213.9902 -127.3701)" class="st11 st12 st13">70</text>
		<rect x="-214" y="-195.2" class="st0" width="9.8" height="10.4"/>
		<text transform="matrix(1 0 0 1 -213.9902 -187.6099)" class="st11 st12 st13">80</text>
		<rect x="-214" y="-255.4" class="st0" width="9.8" height="10.4"/>
		<text transform="matrix(1 0 0 1 -213.9902 -247.8501)" class="st11 st12 st13">90</text>
		<rect x="-218.9" y="-315.6" class="st0" width="14.7" height="10.4"/>
		<text transform="matrix(1 0 0 1 -218.8848 -308.0898)" class="st11 st12 st13">100</text>
		<rect x="-218.2" y="-375.9" class="st0" width="14.7" height="10.4"/>
		<text transform="matrix(1 0 0 1 -218.2314 -368.3301)" class="st11 st12 st13">110</text>
		<rect x="-194.5" y="-114.8" class="st0" width="19.6" height="10.4"/>
		<text transform="matrix(1 0 0 1 -194.5405 -107.2402)" class="st11 st12 st13">1920</text>
		<rect x="-97.8" y="-114.8" class="st0" width="19.6" height="10.4"/>
		<text transform="matrix(1 0 0 1 -97.7505 -107.2402)" class="st11 st12 st13">1940</text>
		<rect x="-1" y="-114.8" class="st0" width="19.6" height="10.4"/>
		<text transform="matrix(1 0 0 1 -0.9502 -107.2402)" class="st11 st12 st13">1960</text>
		<rect x="95.8" y="-114.8" class="st0" width="19.6" height="10.4"/>
		<text transform="matrix(1 0 0 1 95.8394 -107.2402)" class="st11 st12 st13">1980</text>
		<rect x="192.6" y="-114.8" class="st0" width="19.6" height="10.4"/>
		<text transform="matrix(1 0 0 1 192.6294 -107.2402)" class="st11 st12 st13">2000</text>
		<rect x="289.4" y="-114.8" class="st0" width="19.6" height="10.4"/>
		<text transform="matrix(1 0 0 1 289.4194 -107.2402)" class="st11 st12 st13">2020</text>
		<rect x="-199.3" y="-404.1" class="st0" width="439.5" height="16.6"/>
		<text transform="matrix(1 0 0 1 -199.272 -392.1094)" class="st12" style="font-size:14px;">Yoshino peak bloom dates in Washington DC as count from New Year.</text>
		<rect x="-199.3" y="-427.1" class="st0" width="504.3" height="21.3"/>
		<text transform="matrix(1 0 0 1 -199.272 -411.6104)" class="st12" style="font-size:18px;">Yoshino peak bloom days are 5 days earlier than a decade ago</text>
		<rect x="85" y="-88.4" class="st0" width="248.8" height="14.2"/>
		<text transform="matrix(1 0 0 1 84.9609 -78.1299)" class="st12 st17">Source: U.S. Environmental Protection Agency</text>
	</g>
</g>
<g>
	<rect class="st0" width="324" height="432"/>
	<g>
		<defs>
			<rect id="SVGID_00000029727005970790490290000014075576949632575397_" width="324" height="432"/>
		</defs>
		<clipPath id="SVGID_00000111886365817463976750000007760537578282303903_">
			<use xlink:href="#SVGID_00000029727005970790490290000014075576949632575397_"  style="overflow:visible;"/>
		</clipPath>
		<g style="clip-path:url(#SVGID_00000111886365817463976750000007760537578282303903_);">
		</g>
	</g>
	<g>
		<defs>
			<rect id="SVGID_00000102527083515149266220000015394015688136709803_" x="38.2" y="44.7" width="280.4" height="338.9"/>
		</defs>
		<clipPath id="SVGID_00000109022021935357904500000000787812413670571913_">
			<use xlink:href="#SVGID_00000102527083515149266220000015394015688136709803_"  style="overflow:visible;"/>
		</clipPath>
		<g style="clip-path:url(#SVGID_00000109022021935357904500000000787812413670571913_);">
			<line class="st2" x1="38.2" y1="329.6" x2="318.5" y2="329.6"/>
			<line class="st2" x1="38.2" y1="252.6" x2="318.5" y2="252.6"/>
			<line class="st2" x1="38.2" y1="175.6" x2="318.5" y2="175.6"/>
			<line class="st2" x1="38.2" y1="98.6" x2="318.5" y2="98.6"/>
			<line class="st3" x1="38.2" y1="368.1" x2="318.5" y2="368.1"/>
			<line class="st3" x1="38.2" y1="291.1" x2="318.5" y2="291.1"/>
			<line class="st3" x1="38.2" y1="214.1" x2="318.5" y2="214.1"/>
			<line class="st3" x1="38.2" y1="137.1" x2="318.5" y2="137.1"/>
			<line class="st3" x1="38.2" y1="60.1" x2="318.5" y2="60.1"/>
			<polyline class="st4" points="50.9,106.3 54.1,121.7 57.3,175.6 60.5,183.3 63.7,137.1 66.8,298.8 70,275.7 73.2,121.7 
				76.4,229.5 79.6,229.5 82.8,144.8 85.9,167.9 89.1,137.1 92.3,244.9 95.5,167.9 98.7,198.7 101.9,160.2 105.1,152.5 108.2,75.5 
				111.4,167.9 114.6,98.6 117.8,198.7 121,160.2 124.2,191 127.4,121.7 130.6,98.6 133.7,175.6 136.9,167.9 140.1,214.1 
				143.3,144.8 146.5,90.9 149.7,152.5 152.9,121.7 156,129.4 159.2,191 162.4,191 165.6,268 168.8,252.6 172,121.7 175.2,198.7 
				178.3,160.2 181.5,191 184.7,160.2 187.9,160.2 191.1,183.3 194.3,160.2 197.5,198.7 200.6,237.2 203.8,206.4 207,229.5 
				210.2,337.3 213.4,229.5 216.6,152.5 219.8,129.4 222.9,175.6 226.1,198.7 229.3,175.6 232.5,252.6 235.7,244.9 238.9,175.6 
				242.1,314.2 245.2,167.9 248.4,198.7 251.6,198.7 254.8,206.4 258,144.8 261.2,221.8 264.4,206.4 267.5,244.9 270.7,206.4 
				273.9,214.1 277.1,229.5 280.3,291.1 283.5,144.8 286.7,137.1 289.9,137.1 293,252.6 296.2,260.3 299.4,175.6 302.6,206.4 
				305.8,291.1 			"/>
			<polyline class="st5" points="57.3,165.2 60.5,167.1 63.7,168.7 66.8,171.4 70,178.7 73.2,169.8 76.4,174.1 79.6,174.8 
				82.8,171.8 85.9,173.7 89.1,176 92.3,181 95.5,184.4 98.7,184.1 101.9,184.4 105.1,186.8 108.2,177.5 111.4,174.8 114.6,174.4 
				117.8,178.3 121,177.5 124.2,177.9 127.4,177.1 130.6,167.1 133.7,162.1 136.9,164.4 140.1,163.7 143.3,159.4 146.5,156.7 
				149.7,156 152.9,155.2 156,149.4 159.2,150.6 162.4,150.2 165.6,155.6 168.8,160.6 172,162.9 175.2,164.4 178.3,167.5 
				181.5,167.1 184.7,167.1 187.9,165.6 191.1,168.7 194.3,171.8 197.5,172.9 200.6,176.4 203.8,176 207,180.2 210.2,192.5 
				213.4,196.4 216.6,197.9 219.8,197.9 222.9,197.2 226.1,197.5 229.3,192.9 232.5,192.9 235.7,199.1 238.9,197.9 242.1,205.6 
				245.2,204.5 248.4,206.4 251.6,208.3 254.8,209.5 258,208.7 261.2,209.9 264.4,208.3 267.5,210.2 270.7,209.1 273.9,202.9 
				277.1,202.9 280.3,209.9 283.5,210.6 286.7,208.7 289.9,205.6 293,209.5 296.2,209.9 299.4,206.4 302.6,207.9 305.8,206.8 			"/>
			<polyline class="st6" points="50.9,151.7 54.1,150.9 57.3,159.4 60.5,163.3 63.7,167.1 66.8,176.4 70,188.7 73.2,190.2 
				76.4,187.1 79.6,187.9 82.8,191.8 85.9,196.4 89.1,192.5 92.3,198.7 95.5,201.8 98.7,191.8 101.9,180.2 105.1,183.3 108.2,167.9 
				111.4,161.7 114.6,157.1 117.8,160.2 121,162.5 124.2,157.1 127.4,152.5 130.6,142.5 133.7,144 136.9,145.6 140.1,159.4 
				143.3,157.1 146.5,156.3 149.7,151.7 152.9,147.9 156,141.7 159.2,148.6 162.4,157.9 165.6,167.1 168.8,175.6 172,166.4 
				175.2,171.8 178.3,178.7 181.5,182.5 184.7,186.4 187.9,189.5 191.1,188.7 194.3,185.6 197.5,178.7 200.6,177.1 203.8,185.6 
				207,188.7 210.2,206.4 213.4,210.2 216.6,209.5 219.8,206.4 222.9,205.6 226.1,209.5 229.3,207.2 232.5,208.7 235.7,212.6 
				238.9,207.2 242.1,204.9 245.2,198.7 248.4,203.3 251.6,210.2 254.8,213.3 258,207.9 261.2,212.6 264.4,207.9 267.5,207.9 
				270.7,211 273.9,201 277.1,207.2 280.3,216.4 283.5,211 286.7,204.1 289.9,203.3 293,206.4 296.2,211.8 299.4,204.9 302.6,204.9 
				305.8,212.6 			"/>
		</g>
	</g>
	<g>
		<defs>
			<rect id="SVGID_00000041980847332698746150000010828259915159973047_" width="324" height="432"/>
		</defs>
		<clipPath id="SVGID_00000154425833965542457610000015505265636976776086_">
			<use xlink:href="#SVGID_00000041980847332698746150000010828259915159973047_"  style="overflow:visible;"/>
		</clipPath>
		<g style="clip-path:url(#SVGID_00000154425833965542457610000015505265636976776086_);">
			<rect x="23.4" y="363.7" class="st0" width="9.8" height="10.4"/>
			<text transform="matrix(1 0 0 1 23.4419 371.2803)" class="st11 st12 st13">70</text>
			<rect x="23.4" y="286.7" class="st0" width="9.8" height="10.4"/>
			<text transform="matrix(1 0 0 1 23.4419 294.2695)" class="st11 st12 st13">80</text>
			<rect x="23.4" y="209.7" class="st0" width="9.8" height="10.4"/>
			<text transform="matrix(1 0 0 1 23.4419 217.2598)" class="st11 st12 st13">90</text>
			<rect x="18.5" y="132.7" class="st0" width="14.7" height="10.4"/>
			<text transform="matrix(1 0 0 1 18.5474 140.2402)" class="st11 st12 st13">100</text>
			<rect x="19.2" y="55.7" class="st0" width="14.7" height="10.4"/>
			<text transform="matrix(1 0 0 1 19.2007 63.23)" class="st11 st12 st13">110</text>
			<rect x="41.1" y="387.2" class="st0" width="19.6" height="10.4"/>
			<text transform="matrix(1 0 0 1 41.1216 394.7598)" class="st11 st12 st13">1940</text>
			<rect x="104.8" y="387.2" class="st0" width="19.6" height="10.4"/>
			<text transform="matrix(1 0 0 1 104.8315 394.7598)" class="st11 st12 st13">1960</text>
			<rect x="168.6" y="387.2" class="st0" width="19.6" height="10.4"/>
			<text transform="matrix(1 0 0 1 168.5518 394.7598)" class="st11 st12 st13">1980</text>
			<rect x="232.3" y="387.2" class="st0" width="19.6" height="10.4"/>
			<text transform="matrix(1 0 0 1 232.2715 394.7598)" class="st11 st12 st13">2000</text>
			<rect x="296" y="387.2" class="st0" width="19.6" height="10.4"/>
			<text transform="matrix(1 0 0 1 295.9922 394.7598)" class="st11 st12 st13">2020</text>
			<line class="st14" x1="50.8" y1="19.6" x2="64.7" y2="19.6"/>
			<line class="st6" x1="50.8" y1="19.6" x2="64.7" y2="19.6"/>
			<line class="st6" x1="50.8" y1="19.6" x2="64.7" y2="19.6"/>
			<line class="st15" x1="174.5" y1="19.6" x2="188.3" y2="19.6"/>
			<line class="st5" x1="174.5" y1="19.6" x2="188.3" y2="19.6"/>
			<line class="st5" x1="174.5" y1="19.6" x2="188.3" y2="19.6"/>
			<line class="st4" x1="298.1" y1="19.6" x2="311.9" y2="19.6"/>
			<line class="st16" x1="298.1" y1="19.6" x2="311.9" y2="19.6"/>
			<line class="st16" x1="298.1" y1="19.6" x2="311.9" y2="19.6"/>
			<rect x="71.9" y="15.2" class="st0" width="95.4" height="10.4"/>
			<text transform="matrix(1 0 0 1 71.8799 22.75)" class="st12 st13">10 Year Rolling Average</text>
			<rect x="195.5" y="15.2" class="st0" width="95.4" height="10.4"/>
			<text transform="matrix(1 0 0 1 195.5 22.75)" class="st12 st13">20 Year Rolling Average</text>
			<rect x="319.1" y="15.2" class="st0" width="99.8" height="10.4"/>
			<text transform="matrix(1 0 0 1 319.1201 22.75)" class="st12 st13">Yoshino Peak Bloom Day</text>
			<rect x="70.4" y="413.6" class="st0" width="248.8" height="14.2"/>
			<text transform="matrix(1 0 0 1 70.3931 423.8701)" class="st12 st17">Source: U.S. Environmental Protection Agency</text>
		</g>
	</g>
</g>
</svg>
