<?xml version="1.0" encoding="utf-8"?>
<!-- Generator: Adobe Illustrator 28.2.0, SVG Export Plug-In . SVG Version: 6.00 Build 0)  -->
<svg version="1.2" baseProfile="tiny" id="g-Blooms-ai2html-Artboard_1-interaction-img" xmlns="http://www.w3.org/2000/svg" xmlns:xlink="http://www.w3.org/1999/xlink"
	 x="0px" y="0px" viewBox="0 0 576 360" overflow="visible" xml:space="preserve">
<g>
	
		<path id="Line3_00000003801155717596992410000002746636875944980106_" fill="none" stroke="#000000" stroke-width="0.75" stroke-linejoin="round" stroke-miterlimit="10" d="
		M486.238,63.804c0,0,62.136,19.831,58.512,67.402l-6.826-7.069l6.826,7.069l8.421-7.069"/>
	
		<polyline id="Line7_00000009568591251790726570000014141878263907307447_" fill="none" stroke="#913055" stroke-width="1.49" stroke-linejoin="round" stroke-miterlimit="10" points="
		159.15,139.59 163.99,141.11 168.83,142.32 173.67,144.44 178.51,150.2 183.35,143.23 188.19,146.56 193.03,147.17 197.87,144.75 
		202.71,146.26 207.55,148.08 212.39,152.02 217.23,154.75 222.07,154.45 226.91,154.75 231.75,156.57 236.59,149.29 241.43,147.17 
		246.27,146.87 251.11,149.9 255.95,149.29 260.79,149.6 265.63,148.99 270.46,141.11 275.3,137.16 280.14,138.98 284.98,138.38 
		289.82,135.04 294.66,132.92 299.5,132.31 304.34,131.71 309.18,127.16 314.02,128.07 318.86,127.76 323.7,132.01 328.54,135.95 
		333.38,137.77 338.22,138.98 343.06,141.41 347.9,141.11 352.74,141.11 357.58,139.89 362.42,142.32 367.26,144.75 372.1,145.66 
		376.94,148.38 381.78,148.08 386.62,151.42 391.45,161.12 396.29,164.15 401.13,165.37 405.97,165.37 410.81,164.76 415.65,165.06 
		420.49,161.42 425.33,161.42 430.17,166.28 435.01,165.37 439.85,171.43 444.69,170.52 449.53,172.04 454.37,173.55 459.21,174.46 
		464.05,173.86 468.89,174.77 473.73,173.55 478.57,175.07 483.41,174.16 488.25,169.31 493.09,169.31 497.93,174.77 502.77,175.37 
		507.61,173.86 512.45,171.43 517.28,174.46 522.12,174.77 526.96,172.04 531.8,173.25 536.64,172.34 541.48,175.07 546.32,178.71 	
		"/>
	
		<polyline id="Line6_00000108285430509014272330000009103304573631809961_" fill="none" stroke="#A32372" stroke-width="1.49" stroke-linejoin="round" stroke-miterlimit="10" points="
		105.92,149.6 110.76,144.14 115.6,144.14 120.44,143.53 125.28,140.5 130.12,142.32 134.96,127.16 139.8,136.25 144.63,136.86 
		149.47,128.98 154.31,128.37 159.15,135.04 163.99,138.07 168.83,141.11 173.67,148.38 178.51,158.09 183.35,159.3 188.19,156.87 
		193.03,157.48 197.87,160.51 202.71,164.15 207.55,161.12 212.39,165.97 217.23,168.4 222.07,160.51 226.91,151.42 231.75,153.84 
		236.59,141.71 241.43,136.86 246.27,133.22 251.11,135.65 255.95,137.47 260.79,133.22 265.63,129.58 270.46,121.7 275.3,122.91 
		280.14,124.13 284.98,135.04 289.82,133.22 294.66,132.62 299.5,128.98 304.34,125.94 309.18,121.09 314.02,126.55 318.86,133.83 
		323.7,141.11 328.54,147.78 333.38,140.5 338.22,144.75 343.06,150.2 347.9,153.24 352.74,156.27 357.58,158.69 362.42,158.09 
		367.26,155.66 372.1,150.2 376.94,148.99 381.78,155.66 386.62,158.09 391.45,172.04 396.29,175.07 401.13,174.46 405.97,172.04 
		410.81,171.43 415.65,174.46 420.49,172.64 425.33,173.86 430.17,176.89 435.01,172.64 439.85,170.82 444.69,165.97 449.53,169.61 
		454.37,175.07 459.21,177.5 464.05,173.25 468.89,176.89 473.73,173.25 478.57,173.25 483.41,175.68 488.25,167.79 493.09,172.64 
		497.93,179.92 502.77,175.68 507.61,170.22 512.45,169.61 517.28,172.04 522.12,176.28 526.96,170.82 531.8,170.82 536.64,176.89 
		541.48,177.5 546.32,177.5 	"/>
</g>
<style>
#g-Blooms-ai2html-Artboard_1-interaction-img rect, #g-Blooms-ai2html-Artboard_1-interaction-img circle, #g-Blooms-ai2html-Artboard_1-interaction-img path, #g-Blooms-ai2html-Artboard_1-interaction-img line, #g-Blooms-ai2html-Artboard_1-interaction-img polyline, #g-Blooms-ai2html-Artboard_1-interaction-img polygon { vector-effect: non-scaling-stroke; }
</style>
</svg>

