<?xml version="1.0" encoding="utf-8"?>
<!-- Generator: Adobe Illustrator 28.2.0, SVG Export Plug-In . SVG Version: 6.00 Build 0)  -->
<svg version="1.2" baseProfile="tiny" id="g-Blooms-ai2html-Artboard_2-interaction-img" xmlns="http://www.w3.org/2000/svg" xmlns:xlink="http://www.w3.org/1999/xlink"
	 x="0px" y="0px" viewBox="0 0 324 432" overflow="visible" xml:space="preserve">
<g>
	
		<path id="Line1_00000043441486671342164850000016115680459957680546_" fill="none" stroke="#000000" stroke-width="0.75" stroke-linejoin="round" stroke-miterlimit="10" d="
		M261.365,96.69c0,0,59.025,27.752,49.238,74.447l-5.49-8.707l5.49,8.707l7.917-7.013"/>
	
		<polyline id="Line5_00000125568545548571687600000013741824891674908051_" fill="none" stroke="#913055" stroke-width="1.49" stroke-linejoin="round" stroke-miterlimit="10" points="
		57.28,165.2 60.46,167.12 63.65,168.67 66.84,171.36 70.02,178.68 73.21,169.82 76.39,174.06 79.58,174.83 82.77,171.75 
		85.95,173.67 89.14,175.98 92.32,180.99 95.51,184.45 98.7,184.07 101.88,184.45 105.07,186.76 108.25,177.52 111.44,174.83 
		114.62,174.44 117.81,178.29 121,177.52 124.18,177.91 127.37,177.14 130.55,167.12 133.74,162.12 136.93,164.43 140.11,163.66 
		143.3,159.42 146.48,156.73 149.67,155.96 152.86,155.19 156.04,149.41 159.23,150.57 162.41,150.18 165.6,155.57 168.78,160.58 
		171.97,162.89 175.16,164.43 178.34,167.51 181.53,167.12 184.71,167.12 187.9,165.58 191.09,168.67 194.27,171.75 197.46,172.9 
		200.64,176.37 203.83,175.98 207.01,180.22 210.2,192.54 213.39,196.39 216.57,197.93 219.76,197.93 222.94,197.16 226.13,197.54 
		229.32,192.92 232.5,192.92 235.69,199.08 238.87,197.93 242.06,205.63 245.25,204.48 248.43,206.4 251.62,208.33 254.8,209.48 
		257.99,208.71 261.17,209.87 264.36,208.33 267.55,210.25 270.73,209.1 273.92,202.93 277.1,202.93 280.29,209.87 283.48,210.64 
		286.66,208.71 289.85,205.63 293.03,209.48 296.22,209.87 299.41,206.4 302.59,207.94 305.78,206.79 	"/>
	
		<polyline id="Line4_00000110440737258943951510000009024551854645557149_" fill="none" stroke="#A32372" stroke-width="1.49" stroke-linejoin="round" stroke-miterlimit="10" points="
		50.91,151.72 54.09,150.95 57.28,159.42 60.46,163.27 63.65,167.12 66.84,176.37 70.02,188.69 73.21,190.23 76.39,187.15 
		79.58,187.92 82.77,191.77 85.95,196.39 89.14,192.54 92.32,198.7 95.51,201.78 98.7,191.77 101.88,180.22 105.07,183.3 
		108.25,167.89 111.44,161.73 114.62,157.11 117.81,160.19 121,162.5 124.18,157.11 127.37,152.49 130.55,142.48 133.74,144.02 
		136.93,145.56 140.11,159.42 143.3,157.11 146.48,156.34 149.67,151.72 152.86,147.87 156.04,141.71 159.23,148.64 162.41,157.88 
		165.6,167.12 168.78,175.6 171.97,166.35 175.16,171.75 178.34,178.68 181.53,182.53 184.71,186.38 187.9,189.46 191.09,188.69 
		194.27,185.61 197.46,178.68 200.64,177.14 203.83,185.61 207.01,188.69 210.2,206.4 213.39,210.25 216.57,209.48 219.76,206.4 
		222.94,205.63 226.13,209.48 229.32,207.17 232.5,208.71 235.69,212.56 238.87,207.17 242.06,204.86 245.25,198.7 248.43,203.32 
		251.62,210.25 254.8,213.33 257.99,207.94 261.17,212.56 264.36,207.94 267.55,207.94 270.73,211.02 273.92,201.01 277.1,207.17 
		280.29,216.41 283.48,211.02 286.66,204.09 289.85,203.32 293.03,206.4 296.22,211.79 299.41,204.86 302.59,204.86 305.78,212.56 	
		"/>
</g>
<style>
#g-Blooms-ai2html-Artboard_2-interaction-img rect, #g-Blooms-ai2html-Artboard_2-interaction-img circle, #g-Blooms-ai2html-Artboard_2-interaction-img path, #g-Blooms-ai2html-Artboard_2-interaction-img line, #g-Blooms-ai2html-Artboard_2-interaction-img polyline, #g-Blooms-ai2html-Artboard_2-interaction-img polygon { vector-effect: non-scaling-stroke; }
</style>
</svg>

